<svg xmlns="http://www.w3.org/2000/svg" viewBox="0 0 64 64">
  <!-- Dark background circle -->
  <circle cx="32" cy="32" r="32" fill="#040c1a"/>
  <!-- Car body -->
  <rect x="8" y="34" width="48" height="14" rx="3" fill="#1e3a5f"/>
  <!-- Car roof -->
  <path d="M16 34 L22 22 L42 22 L48 34 Z" fill="#0ea5e9"/>
  <!-- Windows -->
  <path d="M24 32 L27 24 L32 24 L32 32 Z" fill="rgba(186,230,253,0.6)"/>
  <path d="M34 32 L34 24 L37 24 L40 32 Z" fill="rgba(186,230,253,0.6)"/>
  <!-- Wheels -->
  <circle cx="18" cy="48" r="7" fill="#0f172a" stroke="#38bdf8" stroke-width="2"/>
  <circle cx="18" cy="48" r="3" fill="#1e293b"/>
  <circle cx="46" cy="48" r="7" fill="#0f172a" stroke="#38bdf8" stroke-width="2"/>
  <circle cx="46" cy="48" r="3" fill="#1e293b"/>
  <!-- Highlight on roof -->
  <path d="M26 26 Q32 23 38 26" stroke="rgba(255,255,255,0.35)" stroke-width="1.5" fill="none" stroke-linecap="round"/>
  <!-- Water splash -->
  <path d="M50 36 Q56 28 60 34" stroke="#38bdf8" stroke-width="2" fill="none" stroke-linecap="round"/>
  <path d="M52 34 Q57 26 61 30" stroke="rgba(125,211,252,0.6)" stroke-width="1.5" fill="none" stroke-linecap="round"/>
  <!-- Sparkle -->
  <path d="M57 20 L58.2 23.2 L61.5 24 L58.2 24.8 L57 28 L55.8 24.8 L52.5 24 L55.8 23.2 Z" fill="white" opacity="0.9"/>
</svg>
